<svg width="35" height="35" viewBox="0 0 35 35" fill="none" xmlns="http://www.w3.org/2000/svg">
<circle cx="17.5" cy="17.5" r="17" fill="white" stroke="#717171"/>
<path d="M23.0159 13.373L14.2113 22.2024C14.0129 22.4008 13.7771 22.5 13.504 22.5C13.2315 22.5 12.996 22.4008 12.7976 22.2024C12.5992 22.004 12.5 21.7682 12.5 21.495C12.5 21.2226 12.5992 20.9871 12.7976 20.7887L21.627 11.9841H14.0873C13.8062 11.9841 13.5704 11.8892 13.38 11.6994C13.1901 11.5089 13.0952 11.2731 13.0952 10.9921C13.0952 10.711 13.1901 10.4752 13.38 10.2847C13.5704 10.0949 13.8062 10 14.0873 10H24.0079C24.289 10 24.5245 10.0949 24.7143 10.2847C24.9048 10.4752 25 10.711 25 10.9921V20.9127C25 21.1938 24.9048 21.4292 24.7143 21.619C24.5245 21.8095 24.289 21.9048 24.0079 21.9048C23.7269 21.9048 23.4914 21.8095 23.3016 21.619C23.1111 21.4292 23.0159 21.1938 23.0159 20.9127V13.373Z" fill="#717171"/>
</svg>
